<?xml version="1.0" encoding="UTF-8"?><svg id="Layer_2" xmlns="http://www.w3.org/2000/svg" viewBox="0 0 332.04 242.75"><g id="Layer_1-2"><g><path d="M26.11,213.45c-.81-1.33-2.12-2.49-3.93-3.46-1.81-.98-4.27-1.82-7.38-2.54-3.11-.72-5.48-1.47-7.11-2.25-1.62-.78-2.79-1.65-3.51-2.61-.72-.96-1.08-2.29-1.08-3.99,0-2.16,.96-3.95,2.89-5.39s4.54-2.16,7.83-2.16,6.22,.84,8.36,2.54c2.13,1.69,3.2,3.81,3.2,6.34h1.92c0-3.3-1.23-5.92-3.69-7.86-2.46-1.93-5.73-2.9-9.79-2.9-3.73,0-6.77,.89-9.1,2.68-2.33,1.79-3.5,4.06-3.5,6.82s.92,4.89,2.75,6.46c1.83,1.57,5.09,2.85,9.78,3.85,7.8,1.65,11.7,4.76,11.7,9.33,0,2.23-1.05,4.12-3.15,5.69-2.1,1.57-4.83,2.35-8.2,2.35-3.67,0-6.57-.73-8.72-2.21-2.15-1.47-3.31-3.53-3.5-6.18H0c0,3.02,1.29,5.48,3.88,7.4,2.59,1.91,6,2.87,10.22,2.87,3.95,0,7.14-.9,9.58-2.71,2.43-1.81,3.65-4.2,3.65-7.18,0-1.92-.4-3.55-1.22-4.89Z"/><path d="M62.95,189.86v26.5c-.6,3.27-2.03,5.76-4.28,7.45s-5.18,2.54-8.78,2.54c-3.39,0-5.96-1.03-7.73-3.08-1.76-2.05-2.67-5.08-2.71-9.07v-24.34h-1.88v24.27c.04,4.6,1.09,8.1,3.15,10.5,2.05,2.4,5.13,3.6,9.24,3.6,3.28,0,5.98-.61,8.12-1.83,2.13-1.21,3.76-2.87,4.87-4.96v6.1h1.91v-37.68h-1.91Z"/><path d="M77.12,176.84v50.7h6.68v-50.7h-6.68Z"/><path d="M91.85,176.84v5.47h16.26v45.23h6.65v-45.23h16.29v-5.47h-39.2Z"/><path d="M162.56,213.45c-.81-1.33-2.12-2.49-3.93-3.46-1.81-.98-4.27-1.82-7.38-2.54-3.11-.72-5.48-1.47-7.11-2.25-1.62-.78-2.79-1.65-3.51-2.61-.72-.96-1.08-2.29-1.08-3.99,0-2.16,.96-3.95,2.89-5.39,1.92-1.44,4.54-2.16,7.83-2.16s6.22,.84,8.36,2.54c2.13,1.69,3.2,3.81,3.2,6.34h1.92c0-3.3-1.24-5.92-3.7-7.86-2.46-1.93-5.72-2.9-9.78-2.9-3.74,0-6.77,.89-9.1,2.68-2.34,1.79-3.5,4.06-3.5,6.82s.91,4.89,2.75,6.46c1.83,1.57,5.09,2.85,9.78,3.85,7.8,1.65,11.7,4.76,11.7,9.33,0,2.23-1.05,4.12-3.15,5.69s-4.83,2.35-8.2,2.35c-3.67,0-6.58-.73-8.72-2.21-2.15-1.47-3.32-3.53-3.5-6.18h-1.88c0,3.02,1.29,5.48,3.88,7.4,2.59,1.91,5.99,2.87,10.22,2.87,3.95,0,7.14-.9,9.57-2.71,2.44-1.81,3.66-4.2,3.66-7.18,0-1.92-.41-3.55-1.22-4.89Z"/><path d="M216.01,189.86l-13.03,34.05-.24,.7-13.96-34.75h-2.06l15.01,37.47-2.3,6.21c-.95,2.6-2.07,4.47-3.37,5.61-1.31,1.15-2.94,1.72-4.91,1.72-.96,0-1.8-.1-2.55-.31l.04,1.8c.51,.26,1.44,.39,2.78,.39,4.18,0,7.18-2.19,8.99-6.58l.83-2.09,16.85-44.22h-2.08Z"/><path d="M252.72,198.12c-1.4-2.86-3.36-5.06-5.87-6.62-2.5-1.55-5.34-2.33-8.49-2.33s-6.03,.8-8.55,2.4c-2.52,1.6-4.47,3.84-5.85,6.7-1.38,2.87-2.07,6.1-2.07,9.7v1.67c.02,3.55,.73,6.75,2.12,9.59,1.4,2.85,3.35,5.06,5.87,6.63,2.52,1.58,5.37,2.37,8.55,2.37s6.03-.8,8.55-2.4c2.51-1.6,4.46-3.83,5.83-6.69,1.37-2.85,2.05-6.09,2.05-9.71v-1.67c-.02-3.57-.74-6.79-2.14-9.64Zm.26,10.93c0,5.08-1.35,9.24-4.06,12.46-2.7,3.23-6.2,4.84-10.49,4.84-2.86,0-5.39-.73-7.61-2.19-2.22-1.46-3.95-3.5-5.19-6.11s-1.86-5.49-1.86-8.62v-1.11c0-4.97,1.36-9.09,4.07-12.36,2.72-3.28,6.22-4.91,10.52-4.91,2.81,0,5.32,.73,7.54,2.21,2.21,1.47,3.95,3.52,5.2,6.14,1.25,2.63,1.88,5.48,1.88,8.57v1.08Z"/><path d="M289.22,189.86v26.5c-.6,3.27-2.03,5.76-4.28,7.45s-5.17,2.54-8.77,2.54c-3.39,0-5.97-1.03-7.73-3.08-1.76-2.05-2.67-5.08-2.72-9.07v-24.34h-1.88v24.27c.05,4.6,1.1,8.1,3.15,10.5,2.06,2.4,5.14,3.6,9.25,3.6,3.27,0,5.97-.61,8.11-1.83,2.14-1.21,3.76-2.87,4.87-4.96v6.1h1.92v-37.68h-1.92Z"/><path d="M320.36,224.45c-.38-.38-.84-.57-1.37-.57s-.99,.19-1.36,.57c-.37,.39-.56,.85-.56,1.38s.19,.99,.56,1.36,.82,.55,1.36,.55,.99-.18,1.37-.55c.39-.37,.58-.83,.58-1.36s-.19-.99-.58-1.38Zm8.45-44.86c-2.16-2.3-5.06-3.44-8.71-3.44s-6.66,1.14-9.05,3.44-3.61,5.33-3.66,9.09h1.88c.05-3.12,1.03-5.68,2.95-7.67,1.91-1.99,4.54-2.98,7.88-2.98,3.14,0,5.6,.96,7.38,2.88,1.79,1.92,2.68,4.57,2.68,7.93,0,1.78-.19,3.31-.57,4.58-.38,1.28-.99,2.51-1.83,3.69-.83,1.18-2.3,2.75-4.39,4.7-2.08,1.95-3.51,3.75-4.26,5.41-.76,1.66-1.16,3.79-1.2,6.39h1.88c0-4.53,1.53-7.99,4.59-10.38,3.02-2.74,5.05-5.14,6.1-7.22,1.04-2.08,1.56-4.45,1.56-7.12,0-3.9-1.08-7-3.23-9.3Z"/></g><g><path d="M210.44,0H85.22c-8.49,0-15.42,6.93-15.42,15.42V94.96c0,8.49,6.93,15.42,15.42,15.42h47.39v19.03h-13.33v3.81h57.1v-3.81h-13.32v-19.03h47.38c8.49,0,15.42-6.93,15.42-15.42V15.42c0-8.49-6.93-15.42-15.42-15.42Zm11.61,94.96c0,6.4-5.21,11.61-11.61,11.61H85.22c-6.39,0-11.61-5.21-11.61-11.61V15.42c0-6.4,5.22-11.61,11.61-11.61h125.22c6.4,0,11.61,5.21,11.61,11.61V94.96Zm-62.8,34.45h-22.84v-19.03h22.84v19.03Z"/><polygon points="91.27 59.32 125.89 75.18 125.89 69.91 96.75 57.35 125.89 44.7 125.89 39.43 91.27 55.25 91.27 59.32"/><polygon points="133.13 90 137.7 90 163.11 23.81 158.59 23.81 133.13 90"/><polygon points="171.11 44.49 200.88 57.18 171.11 69.91 171.11 75.1 206.49 59.23 206.49 55.17 171.11 39.34 171.11 44.49"/></g></g></svg>